# xmcd
#
# Track frame offsets:
#	150
#	11720
#	23760
#	45246
#	58233
#	76326
#	88603
#	99299
#	117002
#	131501
#	146791
#	158472
#	168669
#	180615
#	193338
#	211139
#	229285
#	247107
#	261400
#
# Disc length: 3709
#
# Revision: 2
# Processed by: cddbd v1.5.1PL0 Copyright (c) Steve Scherf et al.
# Submitted via: audiograbber 1.80
# Normalized: r1:TDELIM( - ),TSWAP
#
DISCID=030e7b13
DTITLE=Various Artist - History of Country Music: Classic Country Love Songs
DYEAR=1900
DGENRE=
TTITLE0=Sonny James - Young Love
TTITLE1=Patsy Cline - Sweet Dreams
TTITLE2=Gary Morris - The Wind Beneath My Wings
TTITLE3=Bill Anderson - Still
TTITLE4=Bobby Goldsboro - Honey
TTITLE5=Skeeter Davis - The End of the World
TTITLE6=Connie Smith - Once a Day
TTITLE7=John Anderson - When It Comes to You
TTITLE8=Lee Greenwood - I.O.U
TTITLE9=Alabama - Love in teh First Degree
TTITLE10=Donna Fargo - The Happiest Girl in the Whole USA
TTITLE11=Eddy Arnold - I Wanna Play House With You
TTITLE12=Johnny Cash - I Walk the Line
TTITLE13=Dave and Sugar - The Door Is Always Open
TTITLE14=Barbara Mandrell - Years
TTITLE15=Ronnie Milsap - What a Difference You've Made in My Life
TTITLE16=Eddie Rabbitt - Both to Each Other (Friends and Lovers)
TTITLE17=Dolly Parton - I Will Always Love You
TTITLE18=Keith Whitley - When You Say Nothing at All
EXTD=
EXTT0=
EXTT1=
EXTT2=
EXTT3=
EXTT4=
EXTT5=
EXTT6=
EXTT7=
EXTT8=
EXTT9=
EXTT10=
EXTT11=
EXTT12=
EXTT13=
EXTT14=
EXTT15=
EXTT16=
EXTT17=
EXTT18=
PLAYORDER=
